<svg width="168" height="168" viewBox="0 0 168 168" fill="none" xmlns="http://www.w3.org/2000/svg">
<g id="smartphone 2" clip-path="url(#clip0_9162_11871)">
<g id="Smartphone_1_">
<g id="Group">
<path id="Vector" d="M113.455 164.307L41.0732 157.992C33.5896 157.339 28.0329 150.72 28.6858 143.236L39.7898 15.966C40.4427 8.4824 47.0617 2.92568 54.5454 3.57861L126.927 9.89368C134.41 10.5466 139.967 17.1656 139.314 24.6492L128.21 151.92C127.557 159.403 120.938 164.96 113.455 164.307Z" fill="#EE792B"/>
</g>
<g id="Group_2">
<g id="Group_3">
<path id="Vector_2" d="M121.291 19.9599L58.2356 14.4585C55.3312 14.2051 52.7759 16.3502 52.5225 19.2547L43.2923 125.048C43.0389 127.953 45.1841 130.508 48.0885 130.762L111.144 136.263C114.049 136.516 116.604 134.371 116.857 131.467L126.088 25.673C126.341 22.7686 124.196 20.2133 121.291 19.9599ZM83.9542 144.48L73.4449 143.563C70.5404 143.31 67.9852 145.455 67.7318 148.359C67.4783 151.264 69.6235 153.819 72.528 154.072L83.0373 154.989C85.9417 155.243 88.497 153.098 88.7504 150.193C89.0038 147.289 86.8586 144.733 83.9542 144.48Z" fill="white"/>
</g>
</g>
</g>
</g>
<defs>
<clipPath id="clip0_9162_11871">
<rect width="155" height="155" fill="white" transform="translate(13.5293) rotate(4.98627)"/>
</clipPath>
</defs>
</svg>
